<?xml version="1.0" encoding="iso-8859-1"?>
<!-- Generator: Adobe Illustrator 19.1.0, SVG Export Plug-In . SVG Version: 6.00 Build 0)  -->
<svg version="1.1" id="Capa_1" xmlns="http://www.w3.org/2000/svg" xmlns:xlink="http://www.w3.org/1999/xlink" x="0px" y="0px"
	 viewBox="0 0 126.329 126.329" style="enable-background:new 0 0 126.329 126.329;" xml:space="preserve">
<path d="M101.172,118.025c-10.518,0-19.59-7.231-23.902-15.857c-3.864-7.729-2.194-19,1.789-24.678
	c2.102-2.995,4.839-4.462,7.692-4.124c5.229,0.611,10.256,6.889,14.941,18.656c0.307,0.77-0.069,1.642-0.839,1.948
	c-0.764,0.305-1.641-0.067-1.948-0.839c-5.568-13.984-10.224-16.52-12.503-16.786c-2.209-0.261-3.871,1.417-4.888,2.867
	c-3.416,4.868-4.897,14.942-1.562,21.613c4.691,9.384,15.619,16.938,27.415,13.231c7.139-2.243,13.084-8.188,15.147-15.144
	c1.455-4.907,1.707-12.555-5.36-21.124c-6.451-7.82-12.286-7.756-16.966-7.719c-2.795,0.03-5.213,0.05-6.923-1.743
	c-1.518-1.595-2.077-4.337-1.811-8.892c0.068-1.188,0.189-2.275,0.353-3.273c-3.023-0.26-6.113-0.716-8.89-1.126
	c-0.799-0.117-1.551-0.229-2.241-0.325c-6.565-0.916-5.834-10.639-4.986-21.896c0.248-3.299,0.502-6.678,0.569-9.879
	c-2.585-2.178-6.756-4.017-14.99-5.129c-12.156-1.639-19.93,6.912-22.021,9.573c-3.436,4.373-4.979,9.268-3.84,12.18
	c1.697,4.337,9.589,5.647,17.222,6.914c4.644,0.771,9.446,1.567,13.093,3.093c2.769,1.158,3.873,3.851,3.93,7.425
	c7.543-0.118,14.553,0.626,16.368,2.94c0.719,0.917,0.789,2.054,0.194,3.118c-1.633,2.922-7.9,11.498-13.686,18.727
	c-12.127,15.155-13.886,14.606-15.043,14.24c-0.366-0.115-1.547-0.639-1.355-2.544c0.224-2.244,1.762-6.36,3.708-11.572
	c2.375-6.355,5.745-15.378,6.629-21.832c-5.451,0.213-11.088,0.842-15.092,1.947c-3.606,0.994-7.407,3.938-11.37,8.794
	c0.45,0.358,0.87,0.714,1.258,1.058c7.386,6.542,12.629,17.399,10.585,21.92c-0.683,1.509-2.089,2.248-3.857,2.025
	c-1.612-0.202-3.377-0.369-5.083-0.531c-7.299-0.693-14.192-1.349-16.103-4.877c-0.758-1.399-0.663-3.022,0.282-4.824
	c1.511-2.877,4.557-8.683,8.623-14.168c-5.233-3.322-12.312-5.094-20.509-0.116C7.216,76.148,2.661,84.264,3.019,93.009
	c0.324,7.911,4.617,14.871,11.202,18.163c20.032,10.02,31.669-8.443,32.155-9.234c0.434-0.705,1.355-0.928,2.063-0.495
	c0.705,0.433,0.929,1.354,0.497,2.06c-0.133,0.218-13.544,21.613-36.057,10.354c-7.561-3.781-12.488-11.722-12.857-20.724
	c-0.404-9.853,4.688-18.974,13.624-24.398c9.871-5.994,18.341-3.271,23.906,0.312c3.751-4.59,8.205-8.591,13.027-9.921
	c3.42-0.943,9.727-1.767,16.108-2.044c-0.019-2.392-0.628-4.121-2.122-4.746c-3.324-1.391-7.951-2.158-12.426-2.901
	c-8.459-1.403-17.206-2.856-19.523-8.779c-1.562-3.988,0.076-9.784,4.273-15.127c6.246-7.949,15.507-11.948,24.782-10.692
	c7.125,0.963,11.572,2.553,14.568,4.413c-0.001-0.023-0.002-0.047-0.003-0.071c-0.271-7.141,2.521-9.646,4.91-10.488
	c4.441-1.57,11.021,1.776,15.63,7.96c4.003,5.373,2.079,11.1-1.604,14.391c-3.249,2.904-8.293,4.204-11.641,1.07
	c-1.546-1.446-2.543-3.008-3.508-4.518c-0.292-0.456-0.582-0.91-0.886-1.358c-0.116,2.26-0.288,4.552-0.458,6.808
	c-0.673,8.934-1.368,18.172,2.409,18.699c0.697,0.097,1.458,0.209,2.266,0.328c2.394,0.354,5.781,0.854,9.137,1.109
	c1.547-5.068,4.373-6.934,6.217-7.619c2.574-0.96,5.47-0.4,7.206,1.388c1.362,1.404,1.742,3.309,1.017,5.094
	c-1.481,3.648-6.431,4.502-12.107,4.308c-0.183,1.011-0.309,2.101-0.377,3.262c-0.204,3.508,0.129,5.744,0.99,6.648
	c0.77,0.81,2.299,0.834,4.722,0.812c4.765-0.044,11.947-0.114,19.309,8.811c6.169,7.479,8.272,15.962,5.922,23.886
	c-2.339,7.886-9.061,14.618-17.124,17.151C105.856,117.676,103.479,118.025,101.172,118.025z M38.172,73.182
	c-2.739,3.714-5.552,8.316-8.427,13.795c-0.682,1.298-0.394,1.827-0.301,2.001c1.149,2.121,8.136,2.785,13.749,3.318
	c1.729,0.165,3.516,0.335,5.173,0.542c0.59,0.073,0.668-0.101,0.751-0.285c1.074-2.376-2.342-11.797-9.841-18.438
	C38.922,73.801,38.554,73.49,38.172,73.182z M69.491,59.995c-0.759,6.682-3.997,15.35-6.84,22.958
	c-1.311,3.509-2.566,6.869-3.173,9.093c5.517-4.888,20.73-24.459,24.077-30.383C82.374,60.516,76.373,59.922,69.491,59.995z
	 M95.614,53.334c4.172,0.088,7.739-0.449,8.54-2.422c0.28-0.688,0.148-1.319-0.391-1.875c-0.74-0.763-2.311-1.296-4.007-0.666
	C97.954,49.042,96.538,50.77,95.614,53.334z M79.277,21.646c1.419,1.424,2.368,2.909,3.276,4.331
	c0.905,1.416,1.76,2.754,3.029,3.941c2.038,1.905,5.359,0.88,7.593-1.116c2.469-2.206,4.264-6.244,1.197-10.36
	c-3.72-4.99-9.089-8.033-12.227-6.924c-2.745,0.969-3.002,5.144-2.91,7.546C79.268,19.909,79.281,20.771,79.277,21.646z"/>
<g>
</g>
<g>
</g>
<g>
</g>
<g>
</g>
<g>
</g>
<g>
</g>
<g>
</g>
<g>
</g>
<g>
</g>
<g>
</g>
<g>
</g>
<g>
</g>
<g>
</g>
<g>
</g>
<g>
</g>
</svg>
